<svg xmlns="http://www.w3.org/2000/svg" viewBox="0 0 211 56">
  <path d="M14.573 46.392c-.784 0-1.475-.187-2.072-.56-.56-.41-1.008-1.045-1.344-1.904L2.925 22.144c-.299-.747-.392-1.4-.28-1.96.112-.597.392-1.064.84-1.4.485-.336 1.101-.504 1.848-.504.672 0 1.213.168 1.624.504.448.299.821.896 1.12 1.792l7.336 20.664H14.07l7.616-20.888c.261-.71.616-1.232 1.064-1.568.448-.336 1.027-.504 1.736-.504.71 0 1.288.168 1.736.504.485.336.84.859 1.064 1.568l7.448 20.888h-1.232l7.448-20.776c.299-.859.672-1.437 1.12-1.736a3.036 3.036 0 0 1 1.624-.448c.747 0 1.307.187 1.68.56.41.373.635.859.672 1.456.075.56-.019 1.176-.28 1.848l-8.232 21.784c-.336.821-.803 1.437-1.4 1.848-.56.41-1.213.616-1.96.616-.784 0-1.475-.205-2.072-.616-.56-.41-1.008-1.027-1.344-1.848l-7.84-21.224h2.8l-7.784 21.224c-.299.821-.747 1.437-1.344 1.848-.56.41-1.232.616-2.016.616Zm48.771.112c-2.762 0-5.152-.579-7.168-1.736-1.978-1.157-3.528-2.8-4.648-4.928-1.12-2.128-1.68-4.63-1.68-7.504 0-2.203.318-4.163.952-5.88.635-1.717 1.53-3.192 2.688-4.424a11.422 11.422 0 0 1 4.256-2.856c1.68-.672 3.547-1.008 5.6-1.008 2.726 0 5.078.579 7.056 1.736 2.016 1.157 3.584 2.8 4.704 4.928 1.12 2.09 1.68 4.592 1.68 7.504 0 2.165-.317 4.125-.952 5.88-.634 1.755-1.55 3.248-2.744 4.48-1.157 1.232-2.576 2.184-4.256 2.856-1.642.635-3.472.952-5.488.952Zm0-4.368c1.53 0 2.875-.373 4.032-1.12 1.158-.747 2.054-1.848 2.688-3.304.672-1.456 1.008-3.248 1.008-5.376 0-3.21-.71-5.637-2.128-7.28-1.418-1.643-3.285-2.464-5.6-2.464-1.568 0-2.93.373-4.088 1.12-1.157.71-2.072 1.792-2.744 3.248-.634 1.456-.952 3.248-.952 5.376 0 3.173.71 5.6 2.128 7.28 1.419 1.68 3.304 2.52 5.656 2.52Zm22.592 4.256c-.896 0-1.586-.243-2.072-.728-.485-.523-.728-1.232-.728-2.128V8.984c0-.933.243-1.643.728-2.128.486-.485 1.176-.728 2.072-.728.896 0 1.587.243 2.072.728.523.485.784 1.195.784 2.128V30.6h.112l10.472-10.416c.598-.597 1.139-1.064 1.624-1.4.486-.336 1.12-.504 1.904-.504.784 0 1.382.205 1.792.616.411.41.616.915.616 1.512 0 .56-.28 1.139-.84 1.736L93.384 33.12v-2.632l12.096 12.04c.598.597.878 1.195.84 1.792a2.165 2.165 0 0 1-.728 1.512c-.448.373-1.008.56-1.68.56-.858 0-1.549-.168-2.072-.504-.485-.336-1.064-.84-1.736-1.512l-11.2-10.864h-.112v10.024c0 1.904-.952 2.856-2.856 2.856Zm33.691.112c-1.904 0-3.621-.373-5.152-1.12-1.493-.747-2.669-1.755-3.528-3.024-.858-1.27-1.288-2.707-1.288-4.312 0-2.016.504-3.603 1.512-4.76 1.046-1.195 2.744-2.035 5.096-2.52 2.39-.523 5.6-.784 9.632-.784h2.632v3.472h-2.576c-2.688 0-4.816.13-6.384.392-1.568.261-2.688.71-3.36 1.344-.634.597-.952 1.437-.952 2.52 0 1.419.486 2.576 1.456 3.472.971.859 2.315 1.288 4.032 1.288 1.382 0 2.595-.317 3.64-.952a7.113 7.113 0 0 0 2.464-2.688c.635-1.12.952-2.408.952-3.864v-6.44c0-2.128-.448-3.659-1.344-4.592-.896-.933-2.37-1.4-4.424-1.4-1.194 0-2.445.15-3.752.448-1.269.299-2.594.803-3.976 1.512-.634.299-1.176.392-1.624.28a1.788 1.788 0 0 1-1.064-.728c-.261-.41-.41-.84-.448-1.288 0-.485.112-.952.336-1.4.262-.448.691-.784 1.288-1.008 1.643-.784 3.267-1.344 4.872-1.68 1.606-.336 3.118-.504 4.536-.504 2.502 0 4.555.392 6.16 1.176 1.643.784 2.856 1.979 3.64 3.584.784 1.605 1.176 3.677 1.176 6.216v14.392c0 .896-.224 1.605-.672 2.128-.448.485-1.101.728-1.96.728-.821 0-1.474-.243-1.96-.728-.485-.523-.728-1.232-.728-2.128v-3.64h.504c-.298 1.381-.858 2.576-1.68 3.584-.784.97-1.773 1.717-2.968 2.24-1.194.523-2.557.784-4.088.784Zm24.87-.112c-.933 0-1.661-.261-2.184-.784-.485-.523-.728-1.25-.728-2.184V9.096c0-.97.243-1.699.728-2.184.523-.523 1.251-.784 2.184-.784.934 0 1.643.261 2.128.784.523.485.784 1.213.784 2.184v34.328c0 .933-.242 1.661-.728 2.184-.485.523-1.213.784-2.184.784Zm23.721.112c-2.987 0-5.563-.56-7.728-1.68a12.511 12.511 0 0 1-4.984-4.872c-1.158-2.128-1.736-4.648-1.736-7.56 0-2.837.578-5.32 1.736-7.448 1.157-2.128 2.744-3.79 4.76-4.984 2.016-1.195 4.312-1.792 6.888-1.792 1.904 0 3.602.317 5.096.952a9.85 9.85 0 0 1 3.808 2.688c1.082 1.157 1.885 2.576 2.408 4.256.56 1.68.84 3.565.84 5.656 0 .635-.187 1.12-.56 1.456-.374.299-.934.448-1.68.448H158.25v-3.472h17.248l-.952.784c0-1.867-.28-3.453-.84-4.76-.523-1.307-1.326-2.296-2.408-2.968-1.046-.71-2.352-1.064-3.92-1.064-1.755 0-3.248.41-4.48 1.232-1.195.821-2.11 1.96-2.744 3.416-.635 1.456-.952 3.155-.952 5.096v.336c0 3.285.765 5.768 2.296 7.448 1.568 1.643 3.826 2.464 6.776 2.464 1.12 0 2.296-.15 3.528-.448a11.644 11.644 0 0 0 3.584-1.512c.634-.373 1.194-.541 1.68-.504.522.037.933.205 1.232.504.336.299.541.672.616 1.12.074.448 0 .915-.224 1.4-.224.448-.616.859-1.176 1.232-1.27.859-2.744 1.512-4.424 1.96-1.68.41-3.304.616-4.872.616Zm20.054-.112c-.896 0-1.587-.243-2.072-.728-.485-.523-.728-1.232-.728-2.128V8.984c0-.933.243-1.643.728-2.128.485-.485 1.176-.728 2.072-.728.896 0 1.587.243 2.072.728.523.485.784 1.195.784 2.128V30.6h.112l10.472-10.416c.597-.597 1.139-1.064 1.624-1.4.485-.336 1.12-.504 1.904-.504.784 0 1.381.205 1.792.616.411.41.616.915.616 1.512 0 .56-.28 1.139-.84 1.736L195.72 33.12v-2.632l12.096 12.04c.597.597.877 1.195.84 1.792a2.165 2.165 0 0 1-.728 1.512c-.448.373-1.008.56-1.68.56-.859 0-1.549-.168-2.072-.504-.485-.336-1.064-.84-1.736-1.512l-11.2-10.864h-.112v10.024c0 1.904-.952 2.856-2.856 2.856Z"/>
</svg>
