<svg width="40" height="40" viewBox="0 0 40 40" fill="none" xmlns="http://www.w3.org/2000/svg">
<g clip-path="url(#clip0_801_328)">
<path d="M39.6088 16.5022C39.4981 16.4111 38.4955 15.6493 36.3438 15.6493C35.7872 15.6493 35.211 15.7047 34.6544 15.7991C34.2475 12.9606 31.8907 11.5869 31.7963 11.5153L31.2202 11.18L30.8491 11.7171C30.3868 12.4397 30.032 13.2568 29.8302 14.0901C29.4396 15.7047 29.6805 17.2249 30.4975 18.5237C29.5144 19.0803 27.9194 19.2105 27.5841 19.23H1.23989C0.553051 19.23 -0.00358602 19.7867 -0.00358602 20.4735C-0.0393931 22.7749 0.347974 25.0731 1.14549 27.2443C2.05369 29.6173 3.40785 31.3817 5.15263 32.4559C7.11876 33.6603 10.3284 34.3471 13.9449 34.3471C15.5757 34.3471 17.2098 34.1974 18.8244 33.9012C21.0705 33.4943 23.2222 32.713 25.2046 31.5835C26.8387 30.6362 28.3035 29.4318 29.547 28.0223C31.6433 25.6656 32.8868 23.0321 33.795 20.6949C33.9252 20.6949 34.0359 20.6949 34.1661 20.6949C36.448 20.6949 37.8575 19.7867 38.6355 19.0054C39.1563 18.5237 39.5437 17.928 39.8236 17.2607L39.9896 16.7789L39.6088 16.5022ZM23.3035 18.4683H26.8289C26.9949 18.4683 27.1447 18.3381 27.1447 18.1526V14.9983C27.1447 14.8323 27.0145 14.6826 26.8289 14.6826H23.3035C23.1375 14.6826 22.9878 14.8128 22.9878 14.9983V18.1526C23.0073 18.3381 23.1375 18.4683 23.3035 18.4683ZM18.3882 9.43519H21.9136C22.0796 9.43519 22.2293 9.30499 22.2293 9.11944V5.96517C22.2293 5.79915 22.0796 5.64941 21.9136 5.64941H18.3882C18.2222 5.64941 18.0725 5.77962 18.0725 5.96517V9.11944C18.0725 9.28546 18.2189 9.43519 18.3882 9.43519ZM18.3882 13.9599H21.9136C22.0796 13.9599 22.2293 13.8102 22.2293 13.6441V10.4899C22.2293 10.3239 22.0796 10.1741 21.9136 10.1741H18.3882C18.2222 10.1741 18.0725 10.3043 18.0725 10.4899V13.6441C18.0725 13.8134 18.2189 13.9599 18.3882 13.9599ZM13.5087 13.9599H17.0341C17.2001 13.9599 17.3498 13.8102 17.3498 13.6441V10.4899C17.3498 10.3239 17.2196 10.1741 17.0341 10.1741H13.5087C13.3427 10.1741 13.1929 10.3043 13.1929 10.4899V13.6441C13.1929 13.8134 13.3231 13.9599 13.5087 13.9599ZM8.5543 13.9599H12.0797C12.2457 13.9599 12.3954 13.8102 12.3954 13.6441V10.4899C12.3954 10.3239 12.2652 10.1741 12.0797 10.1741H8.5543C8.38828 10.1741 8.23854 10.3043 8.23854 10.4899V13.6441C8.25808 13.8134 8.38828 13.9599 8.5543 13.9599ZM18.3882 18.4683H21.9136C22.0796 18.4683 22.2293 18.3381 22.2293 18.1526V14.9983C22.2293 14.8323 22.0991 14.6826 21.9136 14.6826H18.3882C18.2222 14.6826 18.0725 14.8128 18.0725 14.9983V18.1526C18.0725 18.3381 18.2189 18.4683 18.3882 18.4683ZM13.5087 18.4683H17.0341C17.2001 18.4683 17.3498 18.3381 17.3498 18.1526V14.9983C17.3498 14.8323 17.2196 14.6826 17.0341 14.6826H13.5087C13.3427 14.6826 13.1929 14.8128 13.1929 14.9983V18.1526C13.1929 18.3381 13.3231 18.4683 13.5087 18.4683ZM8.5543 18.4683H12.0797C12.2457 18.4683 12.3954 18.3381 12.3954 18.1526V14.9983C12.3954 14.8323 12.2652 14.6826 12.0797 14.6826H8.5543C8.38828 14.6826 8.23854 14.8128 8.23854 14.9983V18.1526C8.25808 18.3381 8.38828 18.4683 8.5543 18.4683ZM3.69431 18.4683H7.21967C7.38569 18.4683 7.53542 18.3381 7.53542 18.1526V14.9983C7.53542 14.8323 7.40522 14.6826 7.21967 14.6826H3.69431C3.52829 14.6826 3.37855 14.8128 3.37855 14.9983V18.1526C3.39808 18.3381 3.52829 18.4683 3.69431 18.4683Z" fill="#0091E2"/>
</g>
<defs>
<clipPath id="clip0_801_328">
<rect width="39.9997" height="28.701" fill="white" transform="translate(0 5.64954)"/>
</clipPath>
</defs>
</svg>
