<svg width="40" height="40" viewBox="0 0 40 40" fill="none" xmlns="http://www.w3.org/2000/svg">
<g clip-path="url(#clip0_801_319)">
<path d="M2.57163 20.0287V10.4824C2.56227 10.3144 2.60301 10.1473 2.68868 10.0025C2.77436 9.8576 2.90111 9.74143 3.05288 9.66867L19.5191 0.158672C19.8154 -0.026328 20.1479 -0.0638289 20.4441 0.121171L36.9841 9.66742C37.1259 9.749 37.2424 9.86817 37.3207 10.0118C37.399 10.1554 37.4361 10.3178 37.4279 10.4812V29.5374C37.4361 29.7008 37.399 29.8632 37.3207 30.0068C37.2424 30.1504 37.1259 30.2696 36.9841 30.3512L22.7754 38.5637C22.0309 39.0092 21.2783 39.441 20.5179 39.8587C20.1854 40.0437 19.8516 40.0437 19.5179 39.8587L3.01538 30.3487C2.71913 30.1637 2.57163 29.9412 2.57163 29.5712V20.0249V20.0287Z" fill="#009438"/>
<path d="M14.2271 16.475V27.6C14.2271 28.8575 13.2271 29.9675 11.8959 29.9312C11.0834 29.8937 10.4534 29.5612 10.0209 28.8587C9.79836 28.5262 9.72461 28.1562 9.72461 27.7487V12.295C9.72461 11.2575 10.3534 10.52 11.1671 10.1862C11.9809 9.85246 12.7946 9.92746 13.6096 10.1862C14.3871 10.4087 14.9784 10.8887 15.4846 11.4812L25.3271 23.285C25.3646 23.3225 25.4021 23.3975 25.4746 23.47V12.22C25.4746 11.0362 26.2871 10.1112 27.4371 9.99996C28.8796 9.81496 29.8421 10.85 29.9896 11.925V27.675C29.9896 28.55 29.5821 29.1925 28.8421 29.6C28.2871 29.8962 27.6946 29.97 27.0671 29.9325C26.1595 29.8721 25.2988 29.5069 24.6246 28.8962C24.2546 28.5637 23.9959 28.1562 23.6621 27.7862L14.2996 16.5737C14.2996 16.5362 14.2621 16.4987 14.2246 16.4612L14.2271 16.475Z" fill="#FEFEFE"/>
</g>
<defs>
<clipPath id="clip0_801_319">
<rect width="40" height="40" fill="white"/>
</clipPath>
</defs>
</svg>
