<svg width="40" height="40" viewBox="0 0 40 40" fill="none" xmlns="http://www.w3.org/2000/svg">
<g clip-path="url(#clip0_518_586)">
<path d="M22.4404 33.3333H37.31C37.7824 33.3333 38.2463 33.2101 38.6553 32.9761C39.0644 32.742 39.404 32.4053 39.64 31.9999C39.876 31.5944 40.0002 31.1346 40 30.6665C39.9998 30.1984 39.8752 29.7386 39.6388 29.3334L29.6528 12.1906C29.4167 11.7852 29.0772 11.4486 28.6683 11.2146C28.2593 10.9806 27.7955 10.8573 27.3232 10.8573C26.8511 10.8573 26.3872 10.9806 25.9783 11.2146C25.5693 11.4486 25.2298 11.7852 24.9938 12.1906L22.4404 16.5768L17.448 7.99965C17.2118 7.59436 16.8721 7.25778 16.4631 7.02378C16.054 6.78983 15.5901 6.66663 15.1178 6.66663C14.6456 6.66663 14.1816 6.78983 13.7726 7.02378C13.3635 7.25778 13.0238 7.59436 12.7876 7.99965L0.361177 29.3334C0.124775 29.7386 0.000205749 30.1984 2.54657e-07 30.6665C-0.00020524 31.1346 0.12396 31.5944 0.360007 31.9999C0.596053 32.4053 0.935658 32.742 1.34467 32.9761C1.75367 33.2101 2.21766 33.3333 2.68996 33.3333H12.0239C15.7221 33.3333 18.4494 31.7233 20.326 28.5822L24.8822 20.762L27.3225 16.5768L34.6465 29.1481H24.8822L22.4404 33.3333ZM11.8717 29.1438L5.35782 29.1424L15.1222 12.3816L19.9942 20.762L16.7322 26.3633C15.4859 28.4013 14.0701 29.1438 11.8717 29.1438Z" fill="#00DC82"/>
</g>
<defs>
<clipPath id="clip0_518_586">
<rect width="40" height="40" fill="white"/>
</clipPath>
</defs>
</svg>
