<svg width="40" height="40" viewBox="0 0 40 40" fill="none" xmlns="http://www.w3.org/2000/svg">
<g clip-path="url(#clip0_521_627)">
<path d="M20.0121 33.243C27.9557 33.243 34.3953 26.8035 34.3953 18.8599C34.3953 10.9163 27.9557 4.47668 20.0121 4.47668C12.0685 4.47668 5.62891 10.9163 5.62891 18.8599C5.62891 26.8035 12.0685 33.243 20.0121 33.243Z" fill="transparent" stroke-width="1.1215" stroke-miterlimit="10"/>
<path d="M36.7383 14.9159H3.28607C2.95146 14.9159 2.63054 15.0488 2.39393 15.2854C2.15732 15.522 2.02439 15.843 2.02439 16.1776V17.4645C2.01009 17.7665 2 18.0625 2 18.3645C2 28.3057 10.0588 36.3645 20 36.3645C29.7907 36.3645 37.7561 28.5471 37.9941 18.8128C37.9941 18.7758 38 18.7388 38 18.7009V16.1776C38 15.843 37.8671 15.522 37.6305 15.2854C37.3939 15.0488 37.0729 14.9159 36.7383 14.9159Z"/>
</g>
</svg>
